PathFileType	4	(X/Y/Z)	Kaydara	
DataRate	CameraRate	NumFrames	NumMarkers	Units	OrigDataRate	OrigDataStartFrame	OrigNumFrames	
60.00	60.00	5	74	mm	60.00	1601	67	
Frame#	Time	Y_rasi			Y_rpsi			Y_lpsi			Y_fneck			Y_bneck			Y_fhead			Y_rhead			Y_rshld			Y_relbtop			Y_relbext			Y_relblow			Y_rwrext			Y_rwrtop			Y_rwrlow			Y_lshld			Y_lelbext			Y_lelblow			Y_lelbtop			Y_lwrext			Y_lwrtop			Y_lwrlow			Y_rtopleg			Y_ltopleg			Y_rkneefr			Y_rkneebk			Y_rkneeis			Y_lkneefr			Y_lknssbk			Y_lkneeis			Y_rankfr			Y_rankis			Y_rankbk			Y_lankfr			Y_lankbk			Y_lankis			Y_lhead			Y_lasi			D_rpsi			D_lpsi			D_fneck			D_bneck			D_fhead			D_rhead			D_lhead			D_rshld			D_relbtop			D_relbext			D_relblow			D_rwrext			D_rwrtop			D_rwrlow			D_lshld			D_lelbext			D_lelblow			D_lelbtop			D_lwrext			D_lwrtop			D_lwrlow			D_rtopleg			D_ltopleg			D_rkneefr			D_rkneebk			D_rkneeis			D_lkneefr			D_lknssbk			D_lkneeis			D_rankfr			D_rankis			D_rankbk			D_lankfr			D_lankbk			D_lankis			D_lasi			D_rasi			
		X1	Y1	Z1	X2	Y2	Z2	X3	Y3	Z3	X4	Y4	Z4	X5	Y5	Z5	X6	Y6	Z6	X7	Y7	Z7	X8	Y8	Z8	X9	Y9	Z9	X10	Y10	Z10	X11	Y11	Z11	X12	Y12	Z12	X13	Y13	Z13	X14	Y14	Z14	X15	Y15	Z15	X16	Y16	Z16	X17	Y17	Z17	X18	Y18	Z18	X19	Y19	Z19	X20	Y20	Z20	X21	Y21	Z21	X22	Y22	Z22	X23	Y23	Z23	X24	Y24	Z24	X25	Y25	Z25	X26	Y26	Z26	X27	Y27	Z27	X28	Y28	Z28	X29	Y29	Z29	X30	Y30	Z30	X31	Y31	Z31	X32	Y32	Z32	X33	Y33	Z33	X34	Y34	Z34	X35	Y35	Z35	X36	Y36	Z36	X37	Y37	Z37	X38	Y38	Z38	X39	Y39	Z39	X40	Y40	Z40	X41	Y41	Z41	X42	Y42	Z42	X43	Y43	Z43	X44	Y44	Z44	X45	Y45	Z45	X46	Y46	Z46	X47	Y47	Z47	X48	Y48	Z48	X49	Y49	Z49	X50	Y50	Z50	X51	Y51	Z51	X52	Y52	Z52	X53	Y53	Z53	X54	Y54	Z54	X55	Y55	Z55	X56	Y56	Z56	X57	Y57	Z57	X58	Y58	Z58	X59	Y59	Z59	X60	Y60	Z60	X61	Y61	Z61	X62	Y62	Z62	X63	Y63	Z63	X64	Y64	Z64	X65	Y65	Z65	X66	Y66	Z66	X67	Y67	Z67	X68	Y68	Z68	X69	Y69	Z69	X70	Y70	Z70	X71	Y71	Z71	X72	Y72	Z72	X73	Y73	Z73	X74	Y74	Z74	

17	26.667	-571.21510	1092.65244	-130.71959	-570.08339	1065.69199	-311.09394	-342.00768	1053.62526	-243.63527	-485.90084	1432.25555	-177.52827	-406.54144	1478.31924	-260.67410	-526.17523	1627.81082	-106.44144	-506.63342	1575.41229	-277.39817	-616.53358	1428.51166	-306.06159	-772.11449	1208.91891	-155.17276	-776.23001	1207.87437	-242.39746	-738.40530	1157.45041	-198.37172	-761.97739	1409.96490	-104.17442	-735.69603	1410.98618	-138.09712	-698.51303	1393.15643	-122.66445	-265.37563	1385.15610	-130.35170	-176.77725	1076.12549	-152.89291	-220.87427	1063.35739	-194.15621	-238.81865	1107.77420	-118.03036	-403.21278	958.76694	-50.35863	-396.23253	975.29312	-10.43479	-410.71663	1018.64952	-19.74788	-646.86562	916.03020	-261.47755	-307.13932	904.18472	-128.79535	-643.62831	413.79677	-280.54302	-623.00488	460.94063	-354.60949	-547.93640	423.11668	-271.00544	-344.18762	474.17412	-117.93349	-283.76017	496.78123	-210.09270	-402.84393	467.84096	-192.38537	-633.88317	143.28107	-330.87399	-562.84935	135.83433	-341.92505	-603.38612	137.98630	-396.51756	-277.66424	132.53166	-170.65350	-261.21017	131.00545	-238.18602	-334.38560	125.30473	-207.64902	-380.47962	1566.42670	-191.74410	-418.36353	1080.18326	-86.05680	-967.86629	1173.19435	569.94637	-1109.88510	1179.41330	462.96577	-964.43321	1606.47659	420.40031	-1055.63881	1652.34772	494.58702	-945.18997	1793.72421	290.28528	-977.92427	1804.29657	466.06991	-1097.98325	1779.44778	374.86607	-863.47580	1558.46954	571.17077	-838.32367	1192.03796	576.51398	-797.06474	1208.47549	627.93556	-870.36858	1196.95816	657.64236	-752.50328	915.37872	598.91796	-722.42805	927.90848	571.70643	-746.88835	934.66995	529.55162	-1202.44370	1550.44724	377.04144	-1218.19016	1176.60683	335.95947	-1187.41577	1158.99437	405.35526	-1155.29129	1183.50975	330.21366	-1159.12209	928.36761	304.60003	-1143.52600	945.87051	265.60038	-1099.57138	950.42244	283.52581	-854.37851	1036.78993	563.57990	-1129.93729	1027.80029	343.18779	-766.97304	563.49659	434.46411	-792.18277	565.34058	545.39909	-879.66576	541.59752	461.43795	-1012.58522	467.18235	358.14171	-1104.62845	514.55914	406.13182	-1016.72150	503.13828	469.89567	-782.91672	198.57550	541.70135	-856.87576	189.54662	519.27864	-839.57321	198.04514	603.72509	-1053.65135	158.69609	409.44283	-1073.14560	154.45082	487.23938	-990.38620	164.72473	445.13451	-1025.18089	1189.24088	324.94991	-857.28897	1186.36673	442.04121 
18	26.683	-571.47572	1092.51007	-131.00783	-570.04593	1065.80597	-311.40413	-342.00401	1053.77060	-243.64109	-486.30692	1432.14081	-177.00378	-406.58230	1478.54507	-259.91083	-526.77078	1627.99698	-106.46585	-506.84807	1575.24582	-277.26231	-616.25111	1429.23965	-305.59448	-770.60265	1206.98486	-158.30932	-774.95026	1206.05637	-245.11724	-736.66145	1155.40039	-201.92511	-760.91385	1406.40900	-104.52997	-734.77654	1407.98965	-138.63359	-697.37564	1390.15976	-123.66574	-265.80194	1385.04715	-129.53726	-176.72113	1076.20850	-152.50415	-220.80755	1063.41820	-193.84909	-238.86736	1107.75253	-117.62801	-403.02605	958.71132	-50.27875	-395.89897	975.17990	-10.39415	-410.67661	1018.65173	-19.62875	-646.83296	916.07124	-261.94901	-307.13869	904.15840	-129.00622	-643.64220	413.79101	-280.73130	-623.02624	460.93460	-354.81770	-547.97195	423.09605	-271.18042	-344.11793	474.13857	-118.27398	-283.61206	496.76849	-210.34840	-402.75658	467.82650	-192.67729	-633.84373	143.28391	-331.04511	-562.81033	135.84651	-342.02164	-603.39725	137.96513	-396.55296	-277.65692	132.58522	-170.68419	-261.20321	130.96622	-238.23639	-334.35703	125.30158	-207.66800	-380.83054	1566.87302	-191.26703	-418.59097	1079.99077	-86.29893	-970.25436	1173.14415	569.60892	-1111.21971	1179.02306	460.92815	-965.90523	1606.28113	420.79926	-1057.67052	1652.44171	494.18549	-944.58511	1792.04498	290.05877	-978.32451	1804.66705	465.46246	-1098.09814	1780.12405	373.72330	-866.30684	1558.64426	572.95151	-840.39612	1192.45033	576.65047	-800.35225	1208.55324	629.16431	-874.12331	1196.69846	657.39136	-753.96576	916.19209	598.97110	-723.29735	928.93509	572.19028	-747.18102	935.76218	529.93229	-1203.15834	1550.60822	375.23720	-1218.43414	1176.91254	333.46245	-1188.34213	1159.21333	403.25825	-1155.43488	1183.52730	328.75111	-1160.77614	928.29971	303.44622	-1144.77867	945.40268	264.52120	-1100.87570	949.74045	282.72318	-856.06369	1037.33795	563.49972	-1130.94582	1027.66258	341.99772	-766.73401	564.24026	434.00398	-792.09106	565.90591	544.66904	-879.40308	541.96209	460.74947	-1013.52776	467.19410	359.03820	-1105.87067	514.57584	406.42433	-1018.21487	503.31207	470.66845	-782.89894	199.15457	541.37665	-856.76826	190.03155	518.81691	-839.55971	198.59097	603.01739	-1053.96393	158.66610	409.54071	-1073.57826	154.19133	487.30900	-990.79285	164.86273	445.32368	-1025.73418	1189.73190	324.50260	-858.87070	1186.82663	442.32990 
19	26.700	-571.66950	1092.28523	-131.12736	-570.00828	1066.06674	-311.68901	-341.68030	1053.82896	-244.23374	-486.63872	1431.98624	-176.40606	-406.52576	1478.86612	-259.18789	-527.41802	1628.28445	-106.46781	-506.95148	1575.14145	-277.02084	-615.95856	1430.15350	-305.05056	-768.34213	1204.26880	-162.72427	-773.00301	1203.67020	-248.75826	-734.08760	1152.35458	-207.11391	-759.30161	1401.13831	-104.34501	-733.84224	1403.75122	-138.86595	-695.97443	1385.80612	-125.07970	-266.25404	1384.93622	-128.53795	-176.67452	1076.25984	-152.01232	-220.70471	1063.46779	-193.36546	-238.83265	1107.79503	-117.10709	-403.19382	958.72185	-49.99048	-396.16901	975.21973	-10.05051	-410.74230	1018.63266	-19.39583	-646.71432	916.10680	-262.21788	-307.17503	904.13750	-129.18785	-643.66386	413.79669	-280.91955	-622.96040	460.98396	-355.04532	-547.98477	423.05664	-271.42288	-344.07661	474.12247	-118.70681	-283.55173	496.74095	-210.59259	-402.73312	467.84565	-192.94846	-633.87608	143.22256	-331.32954	-562.82665	135.80180	-342.03526	-603.41576	137.95234	-396.59378	-277.58043	132.58920	-170.77305	-261.17329	130.93410	-238.28175	-334.32343	125.28580	-207.68995	-381.14765	1567.45819	-190.65996	-418.77251	1079.80141	-86.35688	-972.61147	1173.00110	569.01772	-1112.69569	1178.90373	459.63432	-967.36862	1605.91721	421.55930	-1059.78363	1652.53647	493.79459	-943.84834	1789.96201	289.75290	-978.81096	1804.84711	464.73064	-1098.07800	1780.44205	372.26646	-869.33395	1558.76404	574.96189	-842.06100	1192.70576	576.54781	-803.20786	1208.52814	630.19997	-877.40097	1196.21681	656.87683	-754.89311	916.94115	598.18779	-723.99307	929.86023	571.91238	-747.38846	936.74904	529.47388	-1204.03625	1550.60043	373.65215	-1218.60451	1177.02156	331.03603	-1189.39644	1159.24881	401.24916	-1155.59273	1183.38173	326.68728	-1162.16843	928.19214	301.78495	-1145.52994	945.07721	262.99391	-1101.87508	949.19830	281.80403	-857.80418	1037.56393	563.66570	-1131.02562	1027.35016	339.98947	-766.73752	564.71615	433.57388	-792.44270	566.05080	544.45396	-879.61380	542.42653	460.24593	-1014.52805	467.23125	359.63394	-1107.02759	514.58645	406.66183	-1019.83513	503.48751	471.58836	-782.97829	199.49747	541.08879	-856.83708	190.48288	518.24482	-839.71405	198.93196	602.62390	-1054.21844	158.64338	409.62460	-1073.91548	153.99958	487.31983	-991.13602	164.97355	445.47356	-1026.73149	1190.32219	322.66991	-860.40108	1187.27829	443.00598 
20	26.717	-571.95137	1092.08031	-131.11023	-570.22980	1066.16943	-311.68945	-342.06024	1054.14017	-244.11469	-487.13593	1431.34674	-175.23138	-406.40343	1479.07043	-258.25287	-528.19084	1628.59161	-106.45617	-506.82785	1575.09979	-276.77561	-615.89729	1431.24969	-304.58454	-765.36430	1200.73318	-168.94505	-770.43320	1200.46921	-253.93488	-730.70175	1148.48412	-214.37885	-757.24327	1393.44803	-103.42469	-732.81700	1397.78793	-138.70392	-694.16435	1379.67896	-126.24897	-266.62085	1384.72946	-127.55658	-176.59891	1076.24191	-151.49196	-220.65376	1063.45482	-192.88395	-238.87047	1107.73781	-116.65860	-403.32634	958.56331	-49.81641	-396.34720	975.01183	-9.94926	-410.82905	1018.52356	-19.14897	-646.63139	916.12793	-262.46618	-307.12881	904.19563	-129.56121	-643.63991	413.90232	-281.16405	-622.91206	460.99319	-355.22011	-547.93995	423.07880	-271.64944	-344.10149	474.09790	-119.09851	-283.46863	496.77502	-210.90906	-402.69192	467.85099	-193.21165	-633.77800	143.22462	-331.40038	-562.79369	135.84991	-342.11842	-603.42449	137.92933	-396.62918	-277.58966	132.58957	-170.80647	-261.17310	130.91843	-238.31963	-334.32552	125.29558	-207.73518	-380.99617	1567.78931	-190.42126	-418.88897	1079.57458	-86.44149	-974.78233	1172.80838	568.81062	-1114.56566	1178.79234	458.52409	-969.09615	1605.40604	422.31491	-1061.87904	1652.49420	493.47267	-942.97897	1787.49069	289.35522	-979.44229	1804.80682	463.74622	-1098.02795	1780.47165	370.48424	-872.52640	1558.84003	577.24873	-843.62030	1192.87498	576.48460	-805.98663	1208.47496	631.12408	-880.32906	1195.51224	656.36002	-755.79422	917.49435	596.48853	-724.80850	930.68893	570.94982	-747.71545	937.63840	527.79888	-1205.00961	1550.34241	372.28180	-1218.88809	1176.95969	328.63243	-1190.37796	1159.13780	398.92738	-1155.78049	1183.22815	325.03357	-1163.38547	927.97043	299.61115	-1145.99770	944.79698	261.18845	-1102.53067	948.58734	280.83801	-859.15703	1037.76016	563.73158	-1131.68564	1027.08389	338.70148	-767.04262	564.98333	433.14941	-792.88078	566.20232	543.92975	-879.83231	542.47334	459.69040	-1015.09834	467.28031	360.65353	-1108.00644	514.63696	406.89789	-1020.88455	503.58173	472.10732	-783.32039	199.80181	540.49950	-857.07382	190.70240	517.80174	-839.99008	199.16187	602.15729	-1054.40292	158.66791	409.70619	-1074.16061	153.87339	487.35710	-991.45370	165.04677	445.77297	-1026.93642	1190.41969	322.41356	-861.74683	1187.38846	443.46783 
21	26.733	-572.18357	1091.88187	-130.92418	-570.52135	1066.42288	-311.58949	-342.34802	1054.39697	-244.27366	-487.35554	1431.48102	-174.52291	-406.19576	1479.30038	-257.26492	-528.76614	1628.90732	-106.59090	-506.54198	1575.10712	-276.66660	-615.85102	1432.14676	-304.17686	-761.58859	1196.24138	-176.94698	-767.10732	1196.51062	-260.57154	-726.47614	1143.45894	-223.74615	-754.74281	1382.94937	-102.03210	-731.46019	1389.37317	-137.60741	-692.17484	1371.59592	-127.40375	-266.85158	1384.46304	-126.63219	-176.60740	1076.13342	-151.01241	-220.63093	1063.35510	-192.41905	-238.92010	1107.60132	-115.82045	-403.35922	958.25500	-49.53084	-396.38378	974.76021	-9.79820	-410.85819	1018.15857	-18.72888	-646.65138	916.14288	-262.63956	-307.82959	904.11278	-129.37633	-643.72421	413.96912	-281.56033	-622.83436	461.01963	-355.46570	-547.74395	423.15704	-271.97866	-344.09435	474.05888	-119.24133	-283.50822	496.74866	-211.10430	-402.71492	467.88605	-193.40815	-633.76369	143.26146	-331.42792	-562.76718	135.86807	-342.16091	-603.43857	137.90936	-396.67599	-277.55678	132.60899	-170.82756	-261.17010	130.90419	-238.36393	-334.28829	125.28512	-207.71372	-380.95161	1568.11005	-189.89616	-419.02058	1079.35066	-86.64997	-976.82533	1172.52899	568.62759	-1115.93681	1178.05359	457.41096	-970.69534	1604.65240	423.04138	-1064.05479	1652.25845	493.16723	-942.21298	1785.13123	288.96067	-979.69299	1804.44260	462.78378	-1097.92892	1780.24857	368.73005	-875.72502	1558.64838	579.39751	-845.40756	1192.83302	576.66904	-807.87399	1208.09891	631.33511	-882.96028	1194.71008	655.95947	-756.82114	917.79602	594.32938	-725.53436	931.20438	568.94306	-748.42346	938.31291	526.52142	-1206.12122	1549.86938	370.74905	-1219.21326	1176.68152	326.15879	-1191.35086	1158.68774	396.76083	-1156.12991	1182.81883	323.10993	-1164.43687	927.71957	297.16692	-1145.94933	944.43314	259.24223	-1102.91756	947.78732	279.77667	-860.48241	1037.67944	563.78960	-1131.87973	1026.79832	337.13547	-767.33627	565.07874	432.74601	-793.05855	566.30592	543.24505	-880.16701	542.38178	459.00089	-1015.70457	467.26791	361.20934	-1108.89595	514.51828	407.14905	-1022.17194	503.64185	472.77946	-783.62038	199.84093	540.24559	-857.30667	190.75323	517.43393	-840.51605	199.34580	601.77189	-1054.58076	158.62438	409.77478	-1074.39240	153.73509	487.39216	-991.71715	165.06655	446.03962	-1027.07077	1190.41527	322.16183	-862.70454	1187.48901	444.06361 
